<svg width="122" height="52" viewBox="0 0 122 52" fill="none" xmlns="http://www.w3.org/2000/svg">
<path d="M27.0833 34.6667L28.5833 34.6667L28.5833 34.6667L27.0833 34.6667ZM27.0833 17.3333L25.5833 17.3333L25.5833 17.3333L27.0833 17.3333ZM36.0269 15.8013L37.1081 14.7616L37.1081 14.7616L36.0269 15.8013ZM43.1398 23.1987L44.221 22.1591L44.221 22.1591L43.1398 23.1987ZM8.33333 12.3333H25V9.33333H8.33333V12.3333ZM25.5833 13V34.6667H28.5833V13H25.5833ZM7.75 34.6667V13H4.75V34.6667H7.75ZM10.4167 35.3333H8.33333V38.3333H10.4167V35.3333ZM25 35.3333H18.75V38.3333H25V35.3333ZM4.75 34.6667C4.75 36.6357 6.2994 38.3333 8.33333 38.3333V35.3333C8.06607 35.3333 7.75 35.0909 7.75 34.6667H4.75ZM25.5833 34.6667C25.5833 35.0909 25.2673 35.3333 25 35.3333V38.3333C27.0339 38.3333 28.5833 36.6357 28.5833 34.6667H25.5833ZM25 12.3333C25.2673 12.3333 25.5833 12.5758 25.5833 13H28.5833C28.5833 11.0309 27.0339 9.33333 25 9.33333V12.3333ZM8.33333 9.33333C6.2994 9.33333 4.75 11.0309 4.75 13H7.75C7.75 12.5758 8.06607 12.3333 8.33333 12.3333V9.33333ZM28.5833 34.6667L28.5833 17.3333L25.5833 17.3333L25.5833 34.6667L28.5833 34.6667ZM29.1667 16.6667H34.5537V13.6667H29.1667V16.6667ZM42.25 24.7308V34.6667H45.25V24.7308H42.25ZM34.9456 16.8409L42.0585 24.2384L44.221 22.1591L37.1081 14.7616L34.9456 16.8409ZM31.25 35.3333H29.1667V38.3333H31.25V35.3333ZM41.6667 35.3333H39.5833V38.3333H41.6667V35.3333ZM45.25 24.7308C45.25 23.7769 44.8862 22.8508 44.221 22.1591L42.0585 24.2384C42.1748 24.3593 42.25 24.5354 42.25 24.7308H45.25ZM34.5537 16.6667C34.689 16.6667 34.8313 16.722 34.9456 16.8409L37.1081 14.7616C36.441 14.0679 35.5235 13.6667 34.5537 13.6667V16.6667ZM25.5833 34.6667C25.5833 36.6357 27.1327 38.3333 29.1667 38.3333V35.3333C28.8994 35.3333 28.5833 35.0909 28.5833 34.6667H25.5833ZM42.25 34.6667C42.25 35.0909 41.9339 35.3333 41.6667 35.3333V38.3333C43.7006 38.3333 45.25 36.6357 45.25 34.6667H42.25ZM28.5833 17.3333C28.5833 16.9092 28.8994 16.6667 29.1667 16.6667V13.6667C27.1327 13.6667 25.5833 15.3643 25.5833 17.3333H28.5833ZM17.25 36.8333C17.25 38.4541 16.0012 39.6667 14.5833 39.6667V42.6667C17.7678 42.6667 20.25 39.999 20.25 36.8333H17.25ZM14.5833 39.6667C13.1655 39.6667 11.9167 38.4541 11.9167 36.8333H8.91666C8.91666 39.999 11.3988 42.6667 14.5833 42.6667V39.6667ZM11.9167 36.8333C11.9167 35.2125 13.1655 34 14.5833 34V31C11.3988 31 8.91666 33.6677 8.91666 36.8333H11.9167ZM14.5833 34C16.0012 34 17.25 35.2125 17.25 36.8333H20.25C20.25 33.6677 17.7678 31 14.5833 31V34ZM38.0833 36.8333C38.0833 38.4541 36.8345 39.6667 35.4167 39.6667V42.6667C38.6012 42.6667 41.0833 39.999 41.0833 36.8333H38.0833ZM35.4167 39.6667C33.9988 39.6667 32.75 38.4541 32.75 36.8333H29.75C29.75 39.999 32.2321 42.6667 35.4167 42.6667V39.6667ZM32.75 36.8333C32.75 35.2125 33.9988 34 35.4167 34V31C32.2321 31 29.75 33.6677 29.75 36.8333H32.75ZM35.4167 34C36.8345 34 38.0833 35.2125 38.0833 36.8333H41.0833C41.0833 33.6677 38.6012 31 35.4167 31V34Z" fill="#F2F2F2"/>
<path d="M60.096 11.8L55.248 23H52.688L47.856 11.8H50.656L54.064 19.8L57.52 11.8H60.096ZM64.2624 13.912H60.6784V11.8H70.4384V13.912H66.8544V23H64.2624V13.912ZM77.9808 23.192C76.8181 23.192 75.7674 22.9413 74.8288 22.44C73.9008 21.9387 73.1701 21.2507 72.6368 20.376C72.1141 19.4907 71.8528 18.4987 71.8528 17.4C71.8528 16.3013 72.1141 15.3147 72.6368 14.44C73.1701 13.5547 73.9008 12.8613 74.8288 12.36C75.7674 11.8587 76.8181 11.608 77.9808 11.608C79.1434 11.608 80.1888 11.8587 81.1168 12.36C82.0448 12.8613 82.7754 13.5547 83.3088 14.44C83.8421 15.3147 84.1088 16.3013 84.1088 17.4C84.1088 18.4987 83.8421 19.4907 83.3088 20.376C82.7754 21.2507 82.0448 21.9387 81.1168 22.44C80.1888 22.9413 79.1434 23.192 77.9808 23.192ZM77.9808 20.984C78.6421 20.984 79.2394 20.8347 79.7728 20.536C80.3061 20.2267 80.7221 19.8 81.0208 19.256C81.3301 18.712 81.4848 18.0933 81.4848 17.4C81.4848 16.7067 81.3301 16.088 81.0208 15.544C80.7221 15 80.3061 14.5787 79.7728 14.28C79.2394 13.9707 78.6421 13.816 77.9808 13.816C77.3194 13.816 76.7221 13.9707 76.1888 14.28C75.6554 14.5787 75.2341 15 74.9248 15.544C74.6261 16.088 74.4768 16.7067 74.4768 17.4C74.4768 18.0933 74.6261 18.712 74.9248 19.256C75.2341 19.8 75.6554 20.2267 76.1888 20.536C76.7221 20.8347 77.3194 20.984 77.9808 20.984ZM94.0728 23L91.9127 19.88H91.7847H89.5287V23H86.9367V11.8H91.7847C92.7767 11.8 93.6354 11.9653 94.3608 12.296C95.0968 12.6267 95.6621 13.096 96.0568 13.704C96.4514 14.312 96.6488 15.032 96.6488 15.864C96.6488 16.696 96.4461 17.416 96.0407 18.024C95.6461 18.6213 95.0807 19.08 94.3447 19.4L96.8567 23H94.0728ZM94.0247 15.864C94.0247 15.2347 93.8221 14.7547 93.4167 14.424C93.0114 14.0827 92.4194 13.912 91.6407 13.912H89.5287V17.816H91.6407C92.4194 17.816 93.0114 17.6453 93.4167 17.304C93.8221 16.9627 94.0247 16.4827 94.0247 15.864ZM108.254 20.92V23H99.5824V11.8H108.046V13.88H102.158V16.312H107.358V18.328H102.158V20.92H108.254ZM118.143 23L115.439 19.112L112.783 23H109.807L113.951 17.304L110.015 11.8H112.959L115.535 15.432L118.063 11.8H120.863L116.959 17.208L121.135 23H118.143Z" fill="white"/>
<path d="M51.155 28.3H52.255V36H51.155V28.3ZM61.7873 28.3V36H60.8853L56.2653 30.258V36H55.1653V28.3H56.0673L60.6873 34.042V28.3H61.7873ZM69.7851 29.257H67.1451V28.3H73.5141V29.257H70.8741V36H69.7851V29.257ZM75.3172 28.3H76.4172V36H75.3172V28.3ZM86.4665 36L86.4555 30.39L83.6725 35.065H83.1665L80.3835 30.423V36H79.3275V28.3H80.2295L83.4415 33.712L86.6095 28.3H87.5115L87.5225 36H86.4665ZM96.0263 35.043V36H90.4383V28.3H95.8723V29.257H91.5383V31.622H95.3993V32.557H91.5383V35.043H96.0263Z" fill="white"/>
</svg>
